<svg width="31" height="31" viewBox="0 0 31 31" fill="none" xmlns="http://www.w3.org/2000/svg">
<path fill-rule="evenodd" clip-rule="evenodd" d="M22.3034 0.93182C24.4012 0.800706 26.4699 1.52912 28.0288 2.95681C29.4565 4.51561 30.1849 6.58431 30.0683 8.6967V22.3035C30.1995 24.4159 29.4565 26.4846 28.0433 28.0434C26.4845 29.471 24.4012 30.1995 22.3034 30.0683H8.69652C6.58411 30.1995 4.5154 29.471 2.95658 28.0434C1.52888 26.4846 0.800461 24.4159 0.931576 22.3035V8.6967C0.800461 6.58431 1.52888 4.51561 2.95658 2.95681C4.5154 1.52912 6.58411 0.800706 8.69652 0.93182H22.3034ZM14.0137 22.566L23.8182 12.7324C24.7068 11.8292 24.7068 10.3723 23.8182 9.48366L21.9243 7.58979C21.021 6.68656 19.5642 6.68656 18.661 7.58979L17.6849 8.58043C17.5392 8.72611 17.5392 8.97377 17.6849 9.11946C17.6849 9.11946 20.0013 11.4212 20.045 11.4795C20.2052 11.6543 20.3072 11.8874 20.3072 12.1497C20.3072 12.6741 19.8847 13.1112 19.3457 13.1112C19.098 13.1112 18.8649 13.0092 18.7047 12.8489L16.2718 10.4306C16.1552 10.3141 15.9513 10.3141 15.8347 10.4306L8.88559 17.3797C8.40483 17.8604 8.12803 18.5014 8.11346 19.1861L8.02605 22.6388C8.02605 22.8282 8.08433 23.003 8.21544 23.1341C8.34656 23.2652 8.52138 23.3381 8.71077 23.3381H12.1343C12.8336 23.3381 13.5038 23.0613 14.0137 22.566Z" fill="url(#paint0_linear_115_1912)"/>
<defs>
<linearGradient id="paint0_linear_115_1912" x1="30.0832" y1="30.0834" x2="-4.62254" y2="20.0208" gradientUnits="userSpaceOnUse">
<stop stop-color="#0026FF"/>
<stop offset="1" stop-color="#5E76FF"/>
</linearGradient>
</defs>
</svg>
