<svg width="80" height="80" viewBox="0 0 80 80" fill="none" xmlns="http://www.w3.org/2000/svg">
<path d="M40 6.66675C28.97 6.66675 20 15.6367 20 26.6667C20 36.5567 27.2233 44.7734 36.6667 46.3667V56.6668H26.6667V63.3334H36.6667V73.2934H43.3333V63.3334H53.3333V56.6668H43.3333V46.3667C52.7767 44.7701 60 36.5567 60 26.6667C60 15.6367 51.03 6.66675 40 6.66675ZM40 40.0001C32.6467 40.0001 26.6667 34.0201 26.6667 26.6667C26.6667 19.3134 32.6467 13.3334 40 13.3334C47.3533 13.3334 53.3333 19.3134 53.3333 26.6667C53.3333 34.0201 47.3533 40.0001 40 40.0001Z" fill="white"/>
</svg>
