<svg width="36" height="36" viewBox="0 0 36 36" fill="none" xmlns="http://www.w3.org/2000/svg">
<path fill-rule="evenodd" clip-rule="evenodd" d="M23.7747 3.75122C24.7212 3.75122 25.6662 3.88472 26.5647 4.18622C32.1012 5.98622 34.0962 12.0612 32.4297 17.3712C31.4847 20.0847 29.9397 22.5612 27.9162 24.5847C25.0197 27.3897 21.8412 29.8797 18.4197 32.0247L18.0447 32.2512L17.6547 32.0097C14.2212 29.8797 11.0247 27.3897 8.10122 24.5697C6.09122 22.5462 4.54472 20.0847 3.58472 17.3712C1.88972 12.0612 3.88472 5.98622 9.48122 4.15472C9.91622 4.00472 10.3647 3.89972 10.8147 3.84122H10.9947C11.4162 3.77972 11.8347 3.75122 12.2547 3.75122H12.4197C13.3647 3.77972 14.2797 3.94472 15.1662 4.24622H15.2547C15.3147 4.27472 15.3597 4.30622 15.3897 4.33472C15.7212 4.44122 16.0347 4.56122 16.3347 4.72622L16.9047 4.98122C17.0425 5.05467 17.1971 5.16692 17.3307 5.26392C17.4153 5.32538 17.4915 5.38073 17.5497 5.41622C17.5742 5.43066 17.5991 5.44518 17.6242 5.45982C17.7528 5.5349 17.8868 5.61311 17.9997 5.69972C19.6662 4.42622 21.6897 3.73622 23.7747 3.75122ZM27.7647 14.5512C28.3797 14.5347 28.9047 14.0412 28.9497 13.4097V13.2312C28.9947 11.1297 27.7212 9.22622 25.7847 8.49122C25.1697 8.27972 24.4947 8.61122 24.2697 9.24122C24.0597 9.87122 24.3897 10.5612 25.0197 10.7847C25.9812 11.1447 26.6247 12.0912 26.6247 13.1397V13.1862C26.5962 13.5297 26.6997 13.8612 26.9097 14.1162C27.1197 14.3712 27.4347 14.5197 27.7647 14.5512Z" fill="white"/>
</svg>
