<svg width="28" height="29" viewBox="0 0 28 29" fill="none" xmlns="http://www.w3.org/2000/svg">
<path d="M12.25 20.5086L16.8933 17.8486C17.675 17.4052 17.675 16.2736 16.8933 15.8186L12.25 13.1586C11.4683 12.7152 10.5 13.2869 10.5 14.1736V19.4819C10.5 20.3802 11.4683 20.9519 12.25 20.5086ZM24.5 7.50023H15.645L19.075 4.07023C19.3083 3.83689 19.3083 3.47523 19.075 3.24189C18.8417 3.00856 18.48 3.00856 18.2467 3.24189L14 7.48856L9.75333 3.24189C9.52 3.00856 9.15833 3.00856 8.925 3.24189C8.69167 3.47523 8.69167 3.83689 8.925 4.07023L12.355 7.50023H3.5C2.88116 7.50023 2.28767 7.74606 1.85008 8.18365C1.4125 8.62123 1.16667 9.21472 1.16667 9.83356V23.8336C1.16667 25.1169 2.21667 26.1669 3.5 26.1669H24.5C25.7833 26.1669 26.8333 25.1169 26.8333 23.8336V9.83356C26.8333 9.21472 26.5875 8.62123 26.1499 8.18365C25.7123 7.74606 25.1188 7.50023 24.5 7.50023ZM23.3333 23.8336H4.66667C4.025 23.8336 3.5 23.3086 3.5 22.6669V11.0002C3.5 10.3586 4.025 9.83356 4.66667 9.83356H23.3333C23.975 9.83356 24.5 10.3586 24.5 11.0002V22.6669C24.5 23.3086 23.975 23.8336 23.3333 23.8336Z" fill="white"/>
</svg>
