<svg width="348" height="258" viewBox="0 0 348 258" fill="none" xmlns="http://www.w3.org/2000/svg">
<path d="M347.127 226.727H0.873779V226.9H347.127V226.727Z" fill="#E0E0E0"/>
<path d="M262.405 234.06H238.583V234.233H262.405V234.06Z" fill="#E0E0E0"/>
<path d="M77.7697 234.143H64.3628V234.316H77.7697V234.143Z" fill="#E0E0E0"/>
<path d="M174.693 233.741H147.519V233.915H174.693V233.741Z" fill="#E0E0E0"/>
<path d="M146.826 231.276H134.68V231.449H146.826V231.276Z" fill="#E0E0E0"/>
<path d="M294.884 231.366H258.188V231.54H294.884V231.366Z" fill="#E0E0E0"/>
<path d="M164.998 195.841H31.2818C30.2342 195.839 29.2302 195.421 28.4902 194.68C27.7501 193.939 27.3345 192.934 27.3345 191.886V3.91958C27.3436 2.87807 27.7633 1.88222 28.5023 1.14833C29.2414 0.414436 30.2402 0.00178416 31.2818 0H164.998C166.046 0 167.052 0.416603 167.794 1.15816C168.535 1.89972 168.952 2.90549 168.952 3.95421V191.886C168.952 192.935 168.535 193.941 167.794 194.683C167.052 195.424 166.046 195.841 164.998 195.841ZM31.2818 0.138502C30.2802 0.140336 29.3202 0.539507 28.6126 1.2484C27.905 1.95729 27.5076 2.91798 27.5076 3.91958V191.886C27.5076 192.888 27.905 193.849 28.6126 194.558C29.3202 195.267 30.2802 195.666 31.2818 195.668H164.998C166 195.666 166.961 195.267 167.669 194.558C168.378 193.849 168.777 192.889 168.779 191.886V3.91958C168.777 2.91734 168.378 1.95667 167.669 1.24798C166.961 0.539282 166 0.140332 164.998 0.138502H31.2818Z" fill="#E0E0E0"/>
<path d="M314.794 195.841H181.071C180.022 195.839 179.018 195.422 178.277 194.681C177.535 193.939 177.118 192.935 177.116 191.886V3.91958C177.127 2.87744 177.549 1.88159 178.289 1.14789C179.029 0.414194 180.028 0.00176471 181.071 0H314.794C315.834 0.00360414 316.831 0.417061 317.569 1.15076C318.306 1.88445 318.725 2.87927 318.734 3.91958V191.886C318.734 192.933 318.319 193.936 317.581 194.678C316.842 195.419 315.84 195.837 314.794 195.841ZM181.071 0.138502C180.068 0.140332 179.108 0.539282 178.399 1.24798C177.69 1.95667 177.291 2.91734 177.29 3.91958V191.886C177.291 192.889 177.69 193.849 178.399 194.558C179.108 195.267 180.068 195.666 181.071 195.668H314.794C315.796 195.666 316.756 195.267 317.465 194.558C318.174 193.849 318.573 192.889 318.575 191.886V3.91958C318.573 2.91734 318.174 1.95667 317.465 1.24798C316.756 0.539282 315.796 0.140332 314.794 0.138502H181.071Z" fill="#E0E0E0"/>
<path d="M305.099 140.046C296.581 127.075 304.358 113.135 303.063 98.703C301.768 84.2712 288.056 81.1272 290.653 68.9253C293.658 54.7428 285.646 41.135 276.567 41.135C267.489 41.135 259.483 54.7081 262.489 68.9045C265.086 81.1272 251.409 84.2781 250.079 98.6823C248.749 113.086 256.561 127.075 248.036 140.025C239.511 152.975 241.755 170.17 246.554 178.694C247.831 180.956 249.37 183.06 251.139 184.962C254.391 188.453 258.328 191.238 262.703 193.142C267.079 195.045 271.799 196.028 276.571 196.028C281.343 196.028 286.063 195.045 290.439 193.142C294.814 191.238 298.751 188.453 302.003 184.962C303.768 183.058 305.304 180.955 306.581 178.694C311.387 170.19 313.623 153.044 305.099 140.046Z" fill="#E0E0E0"/>
<path d="M276.567 149.886C277.133 149.886 277.693 149.997 278.216 150.214C278.738 150.43 279.213 150.748 279.613 151.148C280.013 151.548 280.33 152.022 280.547 152.545C280.763 153.068 280.875 153.628 280.875 154.193V226.726H272.26V154.193C272.26 153.628 272.371 153.068 272.588 152.545C272.804 152.022 273.121 151.548 273.521 151.148C273.921 150.748 274.396 150.43 274.919 150.214C275.441 149.997 276.001 149.886 276.567 149.886Z" fill="#F0F0F0"/>
<path d="M222.413 226.726H210.703V154.2C210.707 152.646 211.326 151.156 212.425 150.057C213.524 148.958 215.014 148.338 216.569 148.335C218.123 148.338 219.613 148.958 220.712 150.057C221.811 151.156 222.431 152.646 222.434 154.2L222.413 226.726Z" fill="#E0E0E0"/>
<path d="M216.548 207.163C236.501 207.163 252.676 190.988 252.676 171.035C252.676 151.082 236.501 134.907 216.548 134.907C196.595 134.907 180.42 151.082 180.42 171.035C180.42 190.988 196.595 207.163 216.548 207.163Z" fill="#F0F0F0"/>
<path d="M259.001 160.194C260.897 152.563 256.247 144.84 248.615 142.944C240.984 141.048 233.261 145.698 231.365 153.329C229.469 160.961 234.119 168.684 241.751 170.58C249.382 172.476 257.105 167.826 259.001 160.194Z" fill="#F0F0F0"/>
<path d="M195.642 149.685C196.39 145.091 193.272 140.76 188.678 140.012C184.084 139.264 179.754 142.381 179.005 146.975C178.257 151.569 181.375 155.9 185.969 156.648C190.563 157.396 194.894 154.279 195.642 149.685Z" fill="#F0F0F0"/>
<path d="M196.493 149.886C199.759 149.886 202.407 147.238 202.407 143.972C202.407 140.706 199.759 138.058 196.493 138.058C193.227 138.058 190.579 140.706 190.579 143.972C190.579 147.238 193.227 149.886 196.493 149.886Z" fill="#F0F0F0"/>
<path d="M142.145 183.438C136.527 184.274 131.158 186.323 126.411 189.442C126.37 183.957 125.366 178.756 122.789 174.553C118.87 178.369 115.691 183.313 113.094 188.632C112.146 178.666 109.521 168.971 103.711 162.829C95.0061 168.307 90.5186 177.434 88.3857 187.101C84.862 180.583 79.7475 175.061 73.5176 171.049C68.1922 176.658 66.4887 184.414 66.6341 192.364C60.5816 185.315 53.8643 179.816 47.3132 179.172C45.6996 190.314 49.1345 200.827 53.5042 209.137C56.3412 214.468 60.5794 218.925 65.7621 222.026C70.9448 225.127 76.8754 226.754 82.9149 226.733H111.37C123.496 226.733 134.867 220.265 140.552 209.552C144.146 202.766 145.864 194.033 142.145 183.438Z" fill="#E0E0E0"/>
<path d="M134.015 39.5699C137.526 29.2724 134.708 21.9387 126.141 21.9387C120.754 21.9387 114.071 24.8265 107.561 29.5217C106.827 26.8417 104.757 25.242 101.426 25.242C95.5602 25.242 87.4787 30.2003 81.1422 37.1946C79.3582 35.4997 76.9964 34.5466 74.5357 34.5285C68.9195 34.2099 62.126 37.063 56.2189 41.6959C55.9229 41.2816 55.5322 40.9442 55.0792 40.7117C54.6263 40.4792 54.1243 40.3584 53.6151 40.3594C50.3811 40.1793 45.9975 43.0601 43.83 46.7858C43.6984 47.0144 43.5807 47.2429 43.4561 47.4783H135.719C135.996 44.2236 135.421 41.5089 134.015 39.5699Z" fill="#F0F0F0"/>
<path d="M134.299 102.096C136.016 97.0688 134.652 93.4885 130.456 93.4885C127.817 93.4885 124.555 94.8735 121.377 97.1934C121.206 96.5472 120.81 95.9831 120.26 95.6024C119.711 95.2216 119.043 95.0492 118.378 95.1159C115.518 95.1159 111.571 97.5397 108.468 100.961C107.599 100.13 106.444 99.6641 105.241 99.6588C102.471 99.4995 99.182 100.891 96.2942 103.156C96.1542 102.956 95.969 102.791 95.7537 102.676C95.5384 102.56 95.2989 102.497 95.0546 102.491C93.4757 102.401 91.3359 103.807 90.2763 105.628L90.0894 105.961H135.158C135.346 104.611 135.041 103.239 134.299 102.096Z" fill="#F0F0F0"/>
<path d="M238.244 64.0497C237.888 63.9997 237.53 63.9742 237.171 63.9735C237.503 58.9528 235.585 55.7396 231.478 55.7396C228.521 55.7396 224.886 57.4155 221.188 60.2478C222.247 50.4973 218.854 44.1609 211.167 44.1609C204.976 44.1609 197.13 48.3159 189.381 55.0055C188.688 51.1829 186.417 48.8838 182.58 48.8838C175.842 48.8838 166.265 55.975 158.585 65.9748C157.71 64.8217 156.588 63.8793 155.301 63.2166C154.014 62.5539 152.595 62.1878 151.148 62.1453C144.735 61.6951 136.764 65.7671 129.68 72.4013C129.422 71.8418 129.012 71.3664 128.496 71.0296C127.98 70.6927 127.38 70.5081 126.764 70.4969C123.253 70.2476 118.454 73.9109 115.608 78.807H243.888C246.9 71.3833 244.504 64.8876 238.244 64.0497Z" fill="#F0F0F0"/>
<path d="M174 258C248.155 258 308.27 254.49 308.27 250.161C308.27 245.831 248.155 242.322 174 242.322C99.8449 242.322 39.7302 245.831 39.7302 250.161C39.7302 254.49 99.8449 258 174 258Z" fill="#F5F5F5"/>
<path d="M34.7097 66.176L192.58 88.9041L213.764 110.282L34.7097 66.176Z" fill="#0026FF"/>
<path opacity="0.6" d="M34.7097 66.176L192.58 88.9041L213.764 110.282L34.7097 66.176Z" fill="white"/>
<path d="M34.7097 66.176L192.58 88.9041L185.254 119.818L34.7097 66.176Z" fill="#0026FF"/>
<path opacity="0.2" d="M34.7097 66.176L192.58 88.9041L185.254 119.818L34.7097 66.176Z" fill="#212121"/>
<path d="M182.013 30.3873L191.174 73.3226C191.413 74.4438 191.197 75.6137 190.573 76.5757C189.95 77.5377 188.971 78.2132 187.85 78.4541L106.079 95.9053C104.958 96.1417 103.789 95.9248 102.828 95.3019C101.866 94.6791 101.19 93.7009 100.948 92.5812L91.7791 49.6459C91.5428 48.5239 91.7607 47.354 92.3849 46.3923C93.0092 45.4306 93.9891 44.7554 95.11 44.5144L176.881 27.0632C178.003 26.827 179.173 27.0449 180.135 27.6691C181.096 28.2934 181.772 29.2732 182.013 30.3942V30.3873Z" fill="#0026FF"/>
<path opacity="0.4" d="M182.013 30.3873L191.174 73.3226C191.413 74.4438 191.197 75.6137 190.573 76.5757C189.95 77.5377 188.971 78.2132 187.85 78.4541L106.079 95.9053C104.958 96.1417 103.789 95.9248 102.828 95.3019C101.866 94.6791 101.19 93.7009 100.948 92.5812L91.7791 49.6459C91.5428 48.5239 91.7607 47.354 92.3849 46.3923C93.0092 45.4306 93.9891 44.7554 95.11 44.5144L176.881 27.0632C178.003 26.827 179.173 27.0449 180.135 27.6691C181.096 28.2934 181.772 29.2732 182.013 30.3942V30.3873Z" fill="#212121"/>
<path d="M179.997 27.5756L152.678 61.1136C150.144 64.2231 146.625 66.3745 142.703 67.2119C138.78 68.0493 134.689 67.5225 131.107 65.7188L92.4717 46.2594C93.0967 45.3615 94.0401 44.7351 95.1101 44.5073L176.881 27.0562C177.948 26.8291 179.062 27.0147 179.997 27.5756Z" fill="#0026FF"/>
<path d="M34.7097 66.176L164.922 97.1241L185.254 119.818L34.7097 66.176Z" fill="#0026FF"/>
<path opacity="0.6" d="M34.7097 66.176L164.922 97.1241L185.254 119.818L34.7097 66.176Z" fill="white"/>
<path d="M82.2082 96.0057L81.8582 96.6033L96.3485 105.091L96.6985 104.494L82.2082 96.0057Z" fill="#0026FF"/>
<path d="M103.096 108.235L102.746 108.833L107.957 111.885L108.307 111.288L103.096 108.235Z" fill="#0026FF"/>
<path d="M34.7097 66.176L164.922 97.1241L139.611 127.629L34.7097 66.176Z" fill="#0026FF"/>
<path d="M208.875 138.681C208.7 138.682 208.526 138.649 208.363 138.584L187.158 130.191C186.819 130.055 186.547 129.789 186.403 129.453C186.259 129.117 186.253 128.738 186.387 128.397C186.522 128.057 186.785 127.784 187.12 127.638C187.456 127.491 187.835 127.483 188.176 127.615L209.387 136.008C209.688 136.127 209.937 136.346 210.092 136.629C210.248 136.912 210.299 137.24 210.239 137.557C210.178 137.874 210.008 138.16 209.759 138.365C209.51 138.57 209.198 138.682 208.875 138.681Z" fill="#0026FF"/>
<path opacity="0.3" d="M208.875 138.681C208.7 138.682 208.526 138.649 208.363 138.584L187.158 130.191C186.819 130.055 186.547 129.789 186.403 129.453C186.259 129.117 186.253 128.738 186.387 128.397C186.522 128.057 186.785 127.784 187.12 127.638C187.456 127.491 187.835 127.483 188.176 127.615L209.387 136.008C209.688 136.127 209.937 136.346 210.092 136.629C210.248 136.912 210.299 137.24 210.239 137.557C210.178 137.874 210.008 138.16 209.759 138.365C209.51 138.57 209.198 138.682 208.875 138.681Z" fill="#212121"/>
<path d="M207.621 126.521C207.448 126.52 207.276 126.484 207.116 126.417L195.724 121.881C195.554 121.815 195.398 121.716 195.266 121.59C195.135 121.463 195.029 121.312 194.956 121.145C194.882 120.977 194.843 120.797 194.84 120.615C194.837 120.432 194.869 120.25 194.937 120.081C195.004 119.911 195.104 119.756 195.231 119.625C195.358 119.494 195.51 119.389 195.678 119.317C195.846 119.245 196.026 119.207 196.209 119.205C196.391 119.203 196.573 119.237 196.742 119.305L208.134 123.82C208.475 123.954 208.749 124.219 208.896 124.555C209.043 124.891 209.05 125.272 208.916 125.614C208.819 125.879 208.643 126.108 208.411 126.27C208.18 126.432 207.904 126.52 207.621 126.521Z" fill="#0026FF"/>
<path opacity="0.5" d="M207.621 126.521C207.448 126.52 207.276 126.484 207.116 126.417L195.724 121.881C195.554 121.815 195.398 121.716 195.266 121.59C195.135 121.463 195.029 121.312 194.956 121.145C194.882 120.977 194.843 120.797 194.84 120.615C194.837 120.432 194.869 120.25 194.937 120.081C195.004 119.911 195.104 119.756 195.231 119.625C195.358 119.494 195.51 119.389 195.678 119.317C195.846 119.245 196.026 119.207 196.209 119.205C196.391 119.203 196.573 119.237 196.742 119.305L208.134 123.82C208.475 123.954 208.749 124.219 208.896 124.555C209.043 124.891 209.05 125.272 208.916 125.614C208.819 125.879 208.643 126.108 208.411 126.27C208.18 126.432 207.904 126.52 207.621 126.521Z" fill="white"/>
<path d="M183.806 138.501C183.633 138.499 183.462 138.466 183.301 138.404L162.615 130.191C162.445 130.125 162.29 130.026 162.158 129.9C162.026 129.773 161.92 129.622 161.847 129.455C161.774 129.287 161.734 129.107 161.731 128.925C161.728 128.742 161.761 128.561 161.828 128.391C161.895 128.221 161.995 128.066 162.122 127.935C162.25 127.804 162.401 127.699 162.569 127.627C162.737 127.555 162.918 127.517 163.1 127.515C163.283 127.513 163.464 127.547 163.633 127.615L184.319 135.8C184.619 135.919 184.868 136.139 185.023 136.421C185.179 136.704 185.231 137.032 185.17 137.349C185.109 137.666 184.94 137.952 184.691 138.157C184.442 138.362 184.129 138.474 183.806 138.473V138.501Z" fill="#0026FF"/>
<path opacity="0.3" d="M183.806 138.501C183.633 138.499 183.462 138.466 183.301 138.404L162.615 130.191C162.445 130.125 162.29 130.026 162.158 129.9C162.026 129.773 161.92 129.622 161.847 129.455C161.774 129.287 161.734 129.107 161.731 128.925C161.728 128.742 161.761 128.561 161.828 128.391C161.895 128.221 161.995 128.066 162.122 127.935C162.25 127.804 162.401 127.699 162.569 127.627C162.737 127.555 162.918 127.517 163.1 127.515C163.283 127.513 163.464 127.547 163.633 127.615L184.319 135.8C184.619 135.919 184.868 136.139 185.023 136.421C185.179 136.704 185.231 137.032 185.17 137.349C185.109 137.666 184.94 137.952 184.691 138.157C184.442 138.362 184.129 138.474 183.806 138.473V138.501Z" fill="#212121"/>
<path d="M258.694 76.0513C260.529 79.6315 262.212 83.2187 263.811 86.889C265.411 90.5593 266.9 94.278 268.202 98.1768L268.673 99.6519C268.756 99.915 268.874 100.344 268.943 100.649C269.012 100.954 269.074 101.3 269.109 101.591C269.268 102.708 269.349 103.835 269.351 104.963C269.362 107.045 269.265 109.125 269.061 111.196C268.674 115.205 268.045 119.188 267.177 123.121L263.375 122.698C263.327 118.8 263.292 114.859 263.153 111.016C263.091 109.105 262.98 107.186 262.786 105.386C262.699 104.54 262.56 103.701 262.371 102.872C262.336 102.678 262.281 102.533 262.239 102.373C262.198 102.214 262.156 102.159 262.087 101.951L261.561 100.642C260.113 97.1381 258.486 93.6063 256.824 90.0884L251.796 79.5346L258.694 76.0513Z" fill="#E4897B"/>
<path d="M263.431 121.479L261.658 124.797L267.322 126.376C267.322 126.376 268.403 123.709 267.115 121.604L263.431 121.479Z" fill="#E4897B"/>
<path d="M259.49 129.575L264.698 129.99L267.322 126.376L261.658 124.797L259.49 129.575Z" fill="#E4897B"/>
<path d="M234.851 52.118C234.775 52.5265 234.491 52.8105 234.228 52.7551C233.964 52.6997 233.819 52.3326 233.902 51.931C233.985 51.5293 234.262 51.2385 234.525 51.2939C234.788 51.3493 234.941 51.7163 234.851 52.118Z" fill="#263238"/>
<path d="M234.532 52.8105C233.801 53.9435 232.918 54.971 231.908 55.8645C232.144 56.1154 232.431 56.3122 232.75 56.4413C233.069 56.5704 233.413 56.6288 233.757 56.6124L234.532 52.8105Z" fill="#DE5753"/>
<path d="M236.776 50.186C236.711 50.1843 236.648 50.1569 236.603 50.1098C236.404 49.8822 236.154 49.7047 235.874 49.5916C235.594 49.4785 235.291 49.433 234.989 49.4588C234.932 49.4594 234.876 49.4396 234.832 49.4029C234.788 49.3662 234.758 49.3151 234.748 49.2586C234.738 49.2021 234.749 49.1439 234.778 49.0943C234.807 49.0447 234.852 49.007 234.906 48.9879C235.291 48.9391 235.683 48.9863 236.045 49.1252C236.407 49.2642 236.73 49.4906 236.984 49.7843C237.028 49.8296 237.053 49.8905 237.053 49.954C237.053 50.0174 237.028 50.0783 236.984 50.1236C236.956 50.149 236.923 50.1678 236.887 50.1786C236.851 50.1894 236.813 50.1919 236.776 50.186Z" fill="#263238"/>
<path d="M246.305 57.7759C245.578 61.5016 244.851 68.3158 247.454 70.8019C247.454 70.8019 246.436 74.5761 239.518 74.5761C231.901 74.5761 235.889 70.8019 235.889 70.8019C240.045 69.8116 239.927 66.73 239.207 63.8422L246.305 57.7759Z" fill="#E4897B"/>
<path d="M248.5 73.1494C249.047 71.3281 249.65 69.2437 248.403 68.5858C247.018 67.8933 239.491 67.1315 236.894 68.4819C234.297 69.8323 235.038 73.5372 235.038 73.5372L248.5 73.1494Z" fill="#263238"/>
<path d="M264.469 245.84C264.254 245.868 264.036 245.854 263.826 245.797C263.617 245.739 263.421 245.641 263.25 245.507C263.19 245.424 263.158 245.323 263.158 245.22C263.158 245.117 263.19 245.016 263.25 244.932C263.29 244.861 263.344 244.798 263.41 244.749C263.476 244.7 263.551 244.666 263.631 244.649C264.379 244.482 265.778 245.438 265.84 245.48C265.858 245.495 265.872 245.514 265.881 245.536C265.889 245.557 265.892 245.581 265.889 245.604C265.885 245.627 265.874 245.647 265.858 245.663C265.842 245.68 265.821 245.69 265.799 245.694C265.362 245.789 264.916 245.837 264.469 245.84ZM263.832 244.87H263.687C263.64 244.88 263.596 244.9 263.557 244.928C263.519 244.957 263.488 244.994 263.465 245.036C263.354 245.23 263.424 245.313 263.465 245.341C263.68 245.632 264.719 245.632 265.48 245.507C264.984 245.18 264.421 244.967 263.832 244.884V244.87Z" fill="#0026FF"/>
<path d="M265.771 245.715H265.716C265.189 245.424 264.171 244.33 264.275 243.748C264.293 243.658 264.341 243.578 264.412 243.519C264.483 243.461 264.571 243.43 264.663 243.43C264.754 243.42 264.847 243.428 264.935 243.455C265.023 243.481 265.104 243.524 265.175 243.582C265.764 244.067 265.868 245.535 265.868 245.597C265.871 245.619 265.867 245.641 265.857 245.661C265.847 245.681 265.832 245.697 265.813 245.708C265.799 245.713 265.785 245.716 265.771 245.715ZM264.746 243.638H264.718C264.559 243.638 264.545 243.734 264.538 243.762C264.476 244.102 265.127 244.939 265.646 245.334C265.611 244.756 265.404 244.201 265.051 243.741C265.004 243.705 264.951 243.678 264.894 243.663C264.837 243.647 264.777 243.643 264.718 243.651L264.746 243.638Z" fill="#0026FF"/>
<path d="M233.923 245.84C233.272 245.84 232.642 245.75 232.427 245.459C232.373 245.382 232.344 245.29 232.344 245.196C232.344 245.102 232.373 245.01 232.427 244.933C232.469 244.862 232.525 244.8 232.592 244.751C232.659 244.702 232.734 244.667 232.815 244.649C233.653 244.42 235.439 245.431 235.516 245.473C235.536 245.486 235.552 245.505 235.562 245.527C235.572 245.549 235.575 245.574 235.571 245.598C235.567 245.622 235.556 245.644 235.538 245.662C235.521 245.679 235.498 245.69 235.474 245.695C234.963 245.791 234.443 245.839 233.923 245.84ZM233.113 244.857C233.037 244.846 232.96 244.846 232.884 244.857C232.835 244.866 232.789 244.886 232.749 244.915C232.708 244.943 232.674 244.98 232.649 245.023C232.559 245.175 232.593 245.244 232.649 245.286C232.877 245.604 234.165 245.625 235.121 245.494C234.498 245.158 233.816 244.946 233.113 244.87V244.857Z" fill="#0026FF"/>
<path d="M235.46 245.715H235.412C234.795 245.445 233.583 244.33 233.673 243.769C233.673 243.631 233.791 243.464 234.124 243.43C234.247 243.411 234.373 243.42 234.493 243.456C234.613 243.492 234.723 243.554 234.816 243.638C235.467 244.164 235.599 245.535 235.606 245.597C235.608 245.618 235.605 245.64 235.597 245.659C235.588 245.679 235.574 245.696 235.557 245.708C235.542 245.716 235.526 245.721 235.509 245.722C235.493 245.723 235.476 245.721 235.46 245.715ZM234.221 243.638H234.144C233.93 243.638 233.916 243.748 233.909 243.776C233.854 244.122 234.685 244.988 235.294 245.362C235.234 244.78 234.992 244.232 234.601 243.797C234.503 243.711 234.379 243.66 234.248 243.651L234.221 243.638Z" fill="#0026FF"/>
<path d="M241.056 245.59H235.966L235.46 233.811H240.55L241.056 245.59Z" fill="#E4897B"/>
<path d="M271.602 245.59H266.512L263.957 233.811H269.04L271.602 245.59Z" fill="#E4897B"/>
<path d="M266.152 245.002H271.865C271.967 245.002 272.066 245.038 272.145 245.102C272.224 245.166 272.28 245.255 272.302 245.355L273.306 249.877C273.329 249.987 273.326 250.101 273.299 250.21C273.272 250.319 273.221 250.421 273.149 250.507C273.077 250.594 272.986 250.663 272.884 250.71C272.782 250.757 272.67 250.78 272.558 250.777C270.563 250.743 269.594 250.625 267.08 250.625C265.536 250.625 262.35 250.791 260.21 250.791C258.071 250.791 257.8 248.714 258.673 248.485C262.593 247.626 264.068 246.442 265.321 245.32C265.549 245.114 265.845 245.001 266.152 245.002Z" fill="#263238"/>
<path d="M236.001 245.002H241.541C241.643 245.002 241.741 245.038 241.821 245.102C241.9 245.166 241.955 245.255 241.977 245.355L242.981 249.877C243.005 249.986 243.004 250.099 242.978 250.208C242.952 250.317 242.902 250.418 242.832 250.505C242.761 250.591 242.672 250.661 242.571 250.708C242.469 250.755 242.359 250.779 242.247 250.777C240.246 250.743 237.351 250.625 234.83 250.625C231.887 250.625 229.339 250.791 225.883 250.791C223.806 250.791 223.217 248.714 224.09 248.485C228.071 247.612 231.319 247.522 234.761 245.403C235.128 245.154 235.558 245.015 236.001 245.002Z" fill="#263238"/>
<path d="M233.556 79.7353C229.302 79.4057 225.069 78.844 220.876 78.0526C218.798 77.6509 216.679 77.2008 214.574 76.6329C212.416 76.0806 210.297 75.3866 208.231 74.5554C207.698 74.3338 207.157 74.0914 206.624 73.8629C206.024 73.5672 205.445 73.2293 204.893 72.8518C203.896 72.194 203.037 71.5084 202.185 70.8297C200.489 69.4447 198.917 68.0597 197.338 66.6401C194.242 63.7731 191.306 60.8092 188.474 57.6929L191.022 54.8467L201.07 62.0695C202.725 63.2606 204.401 64.431 206.049 65.5321C206.867 66.0791 207.705 66.5916 208.473 67.0279C208.795 67.2112 209.128 67.3731 209.47 67.5126C209.879 67.6719 210.295 67.8312 210.731 67.9835C214.474 69.136 218.301 69.9927 222.178 70.5458C226.132 71.169 230.218 71.6815 234.165 72.097L233.556 79.7353Z" fill="#E4897B"/>
<path d="M256.561 71.9515C261.332 73.0457 266.152 86.9858 266.152 86.9858L256.339 94.0286C256.339 94.0286 253.569 87.5329 250.896 81.8544C248.098 75.9057 251.686 70.8366 256.561 71.9515Z" fill="#0026FF"/>
<path opacity="0.4" d="M256.561 71.9515C261.332 73.0457 266.152 86.9858 266.152 86.9858L256.339 94.0286C256.339 94.0286 253.569 87.5329 250.896 81.8544C248.098 75.9057 251.686 70.8366 256.561 71.9515Z" fill="#212121"/>
<path d="M253.812 79.5691L251.866 83.925C253.881 88.2739 255.723 92.5813 256.215 93.7308C256.145 88.5855 255.169 82.2006 253.812 79.5691Z" fill="#0026FF"/>
<path opacity="0.6" d="M253.812 79.5691L251.866 83.925C253.881 88.2739 255.723 92.5813 256.215 93.7308C256.145 88.5855 255.169 82.2006 253.812 79.5691Z" fill="#212121"/>
<path d="M228.064 72.2148C228.064 72.2148 222.649 78.3296 227.759 116.189H254.968C255.162 112.034 252.537 91.6326 256.561 71.9516C253.553 71.3725 250.511 70.9885 247.454 70.8021C243.603 70.5803 239.741 70.5803 235.889 70.8021C233.248 71.0682 230.632 71.5405 228.064 72.2148Z" fill="#0026FF"/>
<path opacity="0.4" d="M228.064 72.2148C228.064 72.2148 222.649 78.3296 227.759 116.189H254.968C255.162 112.034 252.537 91.6326 256.561 71.9516C253.553 71.3725 250.511 70.9885 247.454 70.8021C243.603 70.5803 239.741 70.5803 235.889 70.8021C233.248 71.0682 230.632 71.5405 228.064 72.2148Z" fill="#212121"/>
<path d="M226.049 79.5691C225.869 81.0026 225.731 82.6992 225.641 84.7006C228.328 83.8941 230.881 82.6946 233.217 81.1411L226.049 79.5691Z" fill="#0026FF"/>
<path opacity="0.6" d="M226.049 79.5691C225.869 81.0026 225.731 82.6992 225.641 84.7006C228.328 83.8941 230.881 82.6946 233.217 81.1411L226.049 79.5691Z" fill="#212121"/>
<path d="M237.711 80.3307C234.068 83.5578 220.163 83.2323 220.163 83.2323L219.706 69.77C224.401 70.4389 229.138 70.7813 233.881 70.7949C241.63 70.6356 241.686 76.7713 237.711 80.3307Z" fill="#0026FF"/>
<path opacity="0.4" d="M237.711 80.3307C234.068 83.5578 220.163 83.2323 220.163 83.2323L219.706 69.77C224.401 70.4389 229.138 70.7813 233.881 70.7949C241.63 70.6356 241.686 76.7713 237.711 80.3307Z" fill="#212121"/>
<path d="M191.154 54.8743L187.691 50.7954L183.959 54.9504C183.959 54.9504 186.258 58.8146 189.907 58.2052L191.154 54.8743Z" fill="#E4897B"/>
<path d="M182.733 46.0378L181.389 51.3632L183.931 54.9227L187.664 50.7954L182.733 46.0378Z" fill="#E4897B"/>
<path d="M235.46 233.818L235.724 239.884H240.814L240.55 233.818H235.46Z" fill="#CE6F64"/>
<path d="M269.047 233.818H263.957L265.273 239.884H270.362L269.047 233.818Z" fill="#CE6F64"/>
<path d="M238.521 47.0906C233.957 45.0131 232.517 35.782 245.647 38.088C245.647 38.088 243.666 40.2763 247.683 41.6614C251.699 43.0464 248.341 51.5988 238.521 47.0906Z" fill="#263238"/>
<path d="M248.438 54.0157C247.129 58.8632 246.616 61.8133 243.59 63.8424C239.061 66.8894 233.431 63.3922 233.251 58.2192C233.092 53.5725 235.259 46.3774 240.488 45.394C241.642 45.1677 242.835 45.2409 243.952 45.6065C245.07 45.9722 246.075 46.6181 246.873 47.4826C247.67 48.3472 248.232 49.4016 248.506 50.5453C248.78 51.689 248.757 52.8837 248.438 54.0157Z" fill="#E4897B"/>
<path d="M245.467 40.5118C248.576 42.2431 252.787 43.2818 252.392 45.7472C251.873 48.7596 254.933 46.8759 254.22 51.3565C253.756 54.2858 248.355 63.1637 244.525 62.7343C238.805 62.0418 239.532 53.344 239.511 48.7596C239.497 46.0519 239.373 37.0978 245.467 40.5118Z" fill="#263238"/>
<path d="M238.826 44.3965C237.441 44.722 235.606 52.7066 240.972 53.4406C247.143 54.2785 238.826 44.3965 238.826 44.3965Z" fill="#263238"/>
<path d="M238.964 47.229C237.268 47.3814 233.424 45.3385 233.895 42.2638C233.895 42.243 236.326 45.8579 238.964 47.229Z" fill="#263238"/>
<path d="M241.485 54.0779C240.964 55.2197 240.08 56.1571 238.971 56.744C237.51 57.5058 236.686 56.3978 237.018 54.9297C237.316 53.6139 238.438 51.6264 239.941 51.4671C241.443 51.3079 242.087 52.6929 241.485 54.0779Z" fill="#E4897B"/>
<path d="M249.103 48.4757C250.137 48.0266 251.045 47.3278 251.743 46.442C252.442 45.5561 252.91 44.5108 253.105 43.3997C253.105 43.3997 255.39 49.7499 249.103 48.4757Z" fill="#263238"/>
<path d="M254.878 48.3717C254.396 48.048 253.842 47.8489 253.264 47.7921C252.687 47.7353 252.104 47.8226 251.568 48.0462C251.568 48.0462 253.701 45.2831 254.878 48.3717Z" fill="#263238"/>
<path d="M237.413 116.189C237.413 116.189 243.189 155.066 246.353 169.63C249.816 185.557 262.904 238.714 262.904 238.714H272.218C272.218 238.714 263.597 186.866 261.616 171.049C259.469 153.91 254.968 116.161 254.968 116.161L237.413 116.189Z" fill="#0026FF"/>
<path opacity="0.5" d="M237.413 116.189C237.413 116.189 243.189 155.066 246.353 169.63C249.816 185.557 262.904 238.714 262.904 238.714H272.218C272.218 238.714 263.597 186.866 261.616 171.049C259.469 153.91 254.968 116.161 254.968 116.161L237.413 116.189Z" fill="white"/>
<path d="M261.415 235.279C261.374 235.279 262.378 238.859 262.378 238.859H272.862L272.669 235.667L261.415 235.279Z" fill="#0026FF"/>
<path opacity="0.1" d="M261.415 235.279C261.374 235.279 262.378 238.859 262.378 238.859H272.862L272.669 235.667L261.415 235.279Z" fill="#212121"/>
<path d="M241.063 130.039C247.739 131.348 247.032 156.243 246.229 169.048C244.304 159.997 241.485 142.58 239.56 130.219C240.026 129.99 240.556 129.926 241.063 130.039Z" fill="#0026FF"/>
<path opacity="0.4" d="M241.063 130.039C247.739 131.348 247.032 156.243 246.229 169.048C244.304 159.997 241.485 142.58 239.56 130.219C240.026 129.99 240.556 129.926 241.063 130.039Z" fill="white"/>
<path d="M227.759 116.189C227.759 116.189 227.067 154.221 227.614 169.74C228.189 185.876 233.847 238.714 233.847 238.714H242.461C242.461 238.714 242.78 186.817 243.154 170.973C243.576 153.695 245.661 116.189 245.661 116.189H227.759Z" fill="#0026FF"/>
<path opacity="0.5" d="M227.759 116.189C227.759 116.189 227.067 154.221 227.614 169.74C228.189 185.876 233.847 238.714 233.847 238.714H242.461C242.461 238.714 242.78 186.817 243.154 170.973C243.576 153.695 245.661 116.189 245.661 116.189H227.759Z" fill="white"/>
<path d="M235.633 232.523C235.612 232.523 235.592 232.515 235.577 232.501C235.562 232.487 235.552 232.467 235.55 232.446C234.027 217.821 230.446 182.434 230.01 169.74C229.546 156.783 229.969 127.712 230.107 119.111C230.107 119.089 230.116 119.068 230.131 119.052C230.147 119.037 230.168 119.028 230.19 119.028C230.213 119.028 230.235 119.036 230.252 119.052C230.268 119.067 230.279 119.088 230.28 119.111C230.142 127.712 229.719 156.783 230.183 169.733C230.633 182.427 234.214 217.8 235.723 232.426C235.724 232.449 235.715 232.472 235.7 232.49C235.685 232.508 235.664 232.519 235.64 232.523H235.633Z" fill="#0026FF"/>
<path opacity="0.4" d="M235.633 232.523C235.612 232.523 235.592 232.515 235.577 232.501C235.562 232.487 235.552 232.467 235.55 232.446C234.027 217.821 230.446 182.434 230.01 169.74C229.546 156.783 229.969 127.712 230.107 119.111C230.107 119.089 230.116 119.068 230.131 119.052C230.147 119.037 230.168 119.028 230.19 119.028C230.213 119.028 230.235 119.036 230.252 119.052C230.268 119.067 230.279 119.088 230.28 119.111C230.142 127.712 229.719 156.783 230.183 169.733C230.633 182.427 234.214 217.8 235.723 232.426C235.724 232.449 235.715 232.472 235.7 232.49C235.685 232.508 235.664 232.519 235.64 232.523H235.633Z" fill="white"/>
<path d="M232.171 235.279C232.136 235.279 232.662 238.859 232.662 238.859H243.14L243.424 235.667L232.171 235.279Z" fill="#0026FF"/>
<path opacity="0.1" d="M232.171 235.279C232.136 235.279 232.662 238.859 232.662 238.859H243.14L243.424 235.667L232.171 235.279Z" fill="#212121"/>
</svg>
