<svg width="80" height="80" viewBox="0 0 80 80" fill="none" xmlns="http://www.w3.org/2000/svg">
<path d="M66.6667 36.6666V13.3333H43.3334L52.6434 22.6433L38.2367 37.0499C34.8629 34.6331 30.8169 33.3334 26.6667 33.3333C15.6367 33.3333 6.66675 42.3032 6.66675 53.3332C6.66675 64.3632 15.6367 73.3332 26.6667 73.3332C37.6967 73.3332 46.6667 64.3632 46.6667 53.3332C46.6667 49.0199 45.2801 45.0333 42.9501 41.7633L57.3567 27.3566L66.6667 36.6666ZM26.6667 66.6666C19.3134 66.6666 13.3334 60.6866 13.3334 53.3332C13.3334 45.9799 19.3134 39.9999 26.6667 39.9999C34.0201 39.9999 40.0001 45.9799 40.0001 53.3332C40.0001 60.6866 34.0201 66.6666 26.6667 66.6666Z" fill="white"/>
</svg>
