<svg width="340" height="294" viewBox="0 0 340 294" fill="none" xmlns="http://www.w3.org/2000/svg">
<path d="M91.7196 293.141L118.45 287.347L149.423 280.627C149.423 280.627 151.1 285.757 153.453 293.141H91.7196Z" fill="#2F2E41"/>
<path d="M159.384 289.812C159.384 289.812 159.134 291.151 158.621 293.141H33.8275C32.4509 288.949 31.8377 284.632 33.4771 281.065C33.7528 280.442 34.1015 279.854 34.5157 279.313C34.8228 278.888 35.1661 278.49 35.5419 278.124C37.9948 275.696 39.4965 270.465 40.3975 264.508C41.4792 256.363 41.9269 248.145 41.7366 239.93C41.7491 239.918 41.7491 239.918 41.7366 239.918C41.7115 237.978 41.6615 236.814 41.6615 236.814C41.6615 236.814 41.1859 229.643 40.6478 218.806C40.6603 218.806 40.6478 218.793 40.6478 218.793C39.1711 189.547 37.1688 133.558 42.3623 118.716C42.6935 117.465 43.3649 116.33 44.302 115.437C51.2936 110.391 58.7332 105.997 66.5275 102.309C66.978 102.109 67.2158 101.997 67.2158 101.997L84.348 101.671L105.622 97.9169L120.402 95.2137C120.402 95.2137 121.491 95.2888 123.193 95.5266C128.849 96.3024 141.288 98.8429 143.04 106.201C143.04 106.214 143.053 106.226 143.053 106.239C143.274 107.203 143.313 108.201 143.166 109.18C141.489 121.444 153.327 196.768 156.931 200.535C160.536 204.302 159.585 218.067 150.674 226.815C149.104 228.433 147.961 230.415 147.345 232.584C143.979 243.409 149.26 261.092 154.429 269.364C158.184 275.492 159.917 282.645 159.384 289.812Z" fill="#3F3D56"/>
<path d="M59.0823 293.141H42.9134L42.3624 292.228L34.5162 279.313L30.1858 272.179L40.3977 264.509L45.2036 260.905L55.8028 285.52L59.0823 293.141Z" fill="#A0616A"/>
<path d="M119.613 293.141H87.8391L108.126 235.575L118.449 287.347L119.613 293.141Z" fill="#0026FF"/>
<path opacity="0.5" d="M142.554 199.838H51.2204C36.7395 199.838 25.0004 211.577 25.0004 226.058V259.078C25.0004 273.559 36.7395 285.298 51.2204 285.298H142.554C157.035 285.298 168.774 273.559 168.774 259.078V226.058C168.774 211.577 157.035 199.838 142.554 199.838Z" fill="#F5F5F5"/>
<path d="M142.554 286.278H51.2204C44.0089 286.27 37.0951 283.402 31.9958 278.302C26.8965 273.203 24.0281 266.289 24.0199 259.078V226.058C24.0281 218.847 26.8965 211.933 31.9958 206.833C37.0951 201.734 44.0089 198.866 51.2204 198.858H142.554C149.766 198.866 156.679 201.734 161.779 206.833C166.878 211.933 169.746 218.847 169.755 226.058V259.078C169.746 266.289 166.878 273.203 161.779 278.302C156.679 283.402 149.766 286.27 142.554 286.278ZM51.2204 200.818C44.5287 200.826 38.1133 203.488 33.3816 208.219C28.6499 212.951 25.9883 219.366 25.9807 226.058V259.078C25.9883 265.769 28.6499 272.185 33.3816 276.917C38.1133 281.648 44.5287 284.31 51.2204 284.318H142.554C149.246 284.31 155.661 281.648 160.393 276.917C165.125 272.185 167.786 265.769 167.794 259.078V226.058C167.786 219.366 165.125 212.951 160.393 208.219C155.661 203.488 149.246 200.826 142.554 200.818H51.2204Z" fill="#F5F5F5"/>
<path d="M98.2908 269.823C110.042 269.823 119.568 260.297 119.568 248.546C119.568 236.794 110.042 227.268 98.2908 227.268C86.5397 227.268 77.0135 236.794 77.0135 248.546C77.0135 260.297 86.5397 269.823 98.2908 269.823Z" fill="#FFB6B6"/>
<path d="M84.4292 254.012C84.1645 253.923 83.8838 253.892 83.6061 253.921C83.3284 253.95 83.0601 254.038 82.8193 254.179C82.5786 254.321 82.3709 254.512 82.2105 254.741C82.05 254.969 81.9404 255.229 81.8891 255.504C81.8189 256.067 81.8645 256.639 82.0232 257.184C82.1818 257.73 82.4501 258.237 82.8117 258.675C83.5382 259.545 84.1893 260.475 84.7579 261.455C85.0354 261.951 85.1654 262.516 85.1327 263.084C85.0999 263.651 84.9058 264.197 84.5732 264.658C84.2106 265.011 83.7554 265.254 83.2603 265.358C82.7653 265.463 82.2508 265.424 81.7766 265.248C80.8327 264.879 79.9981 264.276 79.3515 263.496C75.2837 259.082 71.0403 251.756 73.1198 246.126C73.2924 245.524 73.361 244.897 73.3226 244.272C73.3625 243.556 73.4952 242.477 72.8204 242.233C70.9374 241.553 76.2209 230.546 84.3757 228.152C83.9786 224.394 103.597 218.988 102.526 223.706C102.334 224.553 104.229 224.093 105.096 224.14C111.752 224.5 119.27 226.173 118.664 233.888C118.429 236.875 119.665 236.186 120.657 239.014C119.111 239.935 118.604 241.956 117.412 240.608C116.221 239.259 115.203 237.57 113.495 237.004C111.676 236.401 109.703 237.303 108.152 238.428C106.6 239.552 105.177 240.95 103.354 241.539C101.309 242.2 99.0794 241.74 96.947 242.008C93.9049 242.53 91.1577 244.144 89.2206 246.547C87.3112 248.936 85.6996 251.548 84.4215 254.327" fill="#2F2E41"/>
<path d="M227.535 49.0067L227.176 35.9114L226.697 18.3504L212.697 17.7033L210.737 35.1516L208.911 51.3655L227.535 49.0067Z" fill="#A0616A"/>
<path d="M84.1367 104.455L103.777 125.533C103.777 125.533 186.995 138.973 187.552 131.916C188.109 124.859 182.627 122.815 191.613 123.442C200.598 124.069 202.758 130.453 204.127 124.347C205.497 118.242 197.962 118.092 206.686 117.227C215.409 116.361 234.463 40.1966 234.463 40.1966L204.07 45.0986C204.07 45.0986 198.163 81.9245 194.458 86.6306C190.754 91.3368 187.037 94.7138 184.752 94.9175C182.467 95.1211 84.1367 104.455 84.1367 104.455Z" fill="#3F3D56"/>
<path opacity="0.5" d="M312.8 116.487H221.466C206.985 116.487 195.246 128.226 195.246 142.707V175.727C195.246 190.208 206.985 201.947 221.466 201.947H312.8C327.281 201.947 339.02 190.208 339.02 175.727V142.707C339.02 128.226 327.281 116.487 312.8 116.487Z" fill="#F5F5F5"/>
<path d="M312.8 202.928H221.466C214.255 202.919 207.341 200.051 202.242 194.952C197.142 189.852 194.274 182.939 194.266 175.727V142.707C194.274 135.496 197.142 128.582 202.242 123.483C207.341 118.384 214.255 115.515 221.466 115.507H312.8C320.011 115.515 326.925 118.384 332.025 123.483C337.124 128.582 339.992 135.496 340 142.707V175.727C339.992 182.939 337.124 189.852 332.025 194.952C326.925 200.051 320.011 202.919 312.8 202.928ZM221.466 117.468C214.775 117.475 208.359 120.137 203.627 124.869C198.896 129.6 196.234 136.016 196.227 142.707V175.727C196.234 182.419 198.896 188.834 203.627 193.566C208.359 198.298 214.775 200.959 221.466 200.967H312.8C319.492 200.959 325.907 198.298 330.639 193.566C335.37 188.834 338.032 182.419 338.04 175.727V142.707C338.032 136.016 335.37 129.6 330.639 124.869C325.907 120.137 319.492 117.475 312.8 117.468L221.466 117.468Z" fill="#F5F5F5"/>
<path d="M267.015 183.429C278.581 183.429 287.956 174.054 287.956 162.488C287.956 150.923 278.581 141.547 267.015 141.547C255.45 141.547 246.074 150.923 246.074 162.488C246.074 174.054 255.45 183.429 267.015 183.429Z" fill="#A0616A"/>
<path d="M271.607 183.31C269.036 177.578 282.966 165.684 274.041 165.081C274.041 165.081 268.173 154.794 264.447 157.552C260.134 160.745 253.848 154.945 250.155 151.065C250.941 150.431 251.646 149.703 252.254 148.897C251.081 149.112 249.892 149.237 248.699 149.269C248.257 148.614 247.947 147.879 247.788 147.104C247.615 146.371 247.67 145.603 247.946 144.902C248.222 144.202 248.706 143.602 249.333 143.185C250.687 142.431 252.415 142.891 253.861 142.35C254.042 142.262 254.199 142.132 254.318 141.97C254.437 141.808 254.515 141.619 254.545 141.421C254.653 140.953 254.864 140.515 255.161 140.138C255.458 139.761 255.834 139.455 256.263 139.24C256.693 139.025 257.164 138.907 257.644 138.896C258.124 138.884 258.6 138.978 259.039 139.171C259.207 139.266 259.395 139.319 259.588 139.324C260.596 139.26 261.593 139.076 262.558 138.776C261.475 138.269 260.433 137.681 259.44 137.017C259.236 136.878 259.031 136.74 258.831 136.593C259.731 135.862 260.777 135.335 261.899 135.046C263.021 134.757 264.192 134.714 265.333 134.92C267.723 135.385 270.028 136.217 272.165 137.387C273.431 138.004 274.695 138.619 275.955 139.234C278.678 140.432 281.265 141.915 283.675 143.658C286.189 145.634 288.236 148.141 289.669 150.999C291.101 153.858 291.885 156.997 291.965 160.194C292.08 166.572 286.624 184.048 271.607 183.31Z" fill="#2F2E41"/>
<path d="M219.87 138.018C223.597 138.018 226.619 134.997 226.619 131.27C226.619 127.543 223.597 124.521 219.87 124.521C216.144 124.521 213.122 127.543 213.122 131.27C213.122 134.997 216.144 138.018 219.87 138.018Z" fill="#0026FF"/>
<path d="M218.95 134.781C218.834 134.781 218.719 134.754 218.614 134.702C218.51 134.65 218.42 134.574 218.35 134.481L216.509 132.026C216.449 131.948 216.405 131.858 216.38 131.762C216.355 131.666 216.349 131.566 216.363 131.468C216.376 131.37 216.409 131.276 216.46 131.191C216.51 131.105 216.577 131.031 216.656 130.972C216.735 130.912 216.825 130.869 216.921 130.845C217.017 130.82 217.117 130.815 217.215 130.829C217.313 130.844 217.407 130.877 217.492 130.928C217.577 130.979 217.651 131.046 217.71 131.126L218.914 132.732L222.008 128.091C222.118 127.926 222.29 127.811 222.485 127.772C222.68 127.733 222.883 127.773 223.048 127.883C223.214 127.994 223.329 128.165 223.368 128.361C223.407 128.556 223.367 128.759 223.257 128.924L219.575 134.447C219.508 134.547 219.419 134.63 219.313 134.688C219.208 134.746 219.091 134.778 218.971 134.781L218.95 134.781Z" fill="#F5F5F5"/>
<path d="M66.5334 102.309L106.88 195.529L123.199 95.5264C121.497 95.2886 120.408 95.2136 120.408 95.2136L113.462 81.7231L73.6791 83.7879L67.2217 101.996C67.2217 101.996 66.9839 102.109 66.5334 102.309Z" fill="#0026FF"/>
<path d="M72.4649 115.205L43.6818 116.457C43.6818 116.457 1.13293 189.04 6.13868 194.046C11.1444 199.052 16.2582 196.21 9.94703 202.637C3.63581 209.063 -2.62139 206.56 1.13292 211.566C4.88724 216.572 9.89299 210.939 4.88723 218.135C-0.118519 225.332 40.5532 293.141 40.5532 293.141L58.0734 284.381C58.0734 284.381 41.0242 239.581 39.8501 233.708C38.6761 227.835 38.5213 222.815 39.8501 220.945C41.179 219.075 72.4649 115.205 72.4649 115.205Z" fill="#3F3D56"/>
<path d="M55.1624 222.333C58.8893 222.333 61.9105 219.311 61.9105 215.585C61.9105 211.858 58.8893 208.836 55.1624 208.836C51.4354 208.836 48.4142 211.858 48.4142 215.585C48.4142 219.311 51.4354 222.333 55.1624 222.333Z" fill="#0026FF"/>
<path d="M54.242 219.096C54.1255 219.096 54.0106 219.069 53.9064 219.017C53.8021 218.965 53.7115 218.889 53.6416 218.796L51.8006 216.341C51.7407 216.262 51.6969 216.173 51.6719 216.077C51.6468 215.981 51.641 215.881 51.6547 215.783C51.6683 215.685 51.7013 215.591 51.7516 215.506C51.8019 215.42 51.8685 215.346 51.9477 215.286C52.0269 215.227 52.1171 215.184 52.213 215.159C52.309 215.135 52.4088 215.13 52.5067 215.144C52.6047 215.159 52.6988 215.192 52.7838 215.243C52.8687 215.294 52.9427 215.361 53.0016 215.441L54.206 217.046L57.2995 212.406C57.3542 212.324 57.4245 212.254 57.5064 212.199C57.5883 212.144 57.6802 212.106 57.7769 212.087C57.8735 212.067 57.973 212.067 58.0698 212.086C58.1665 212.105 58.2584 212.143 58.3405 212.198C58.4225 212.253 58.4929 212.323 58.5478 212.405C58.6026 212.487 58.6408 212.579 58.6602 212.675C58.6795 212.772 58.6796 212.872 58.6605 212.968C58.6413 213.065 58.6034 213.157 58.5487 213.239L54.8667 218.762C54.8 218.862 54.7105 218.944 54.6054 219.003C54.5004 219.061 54.3829 219.093 54.2629 219.096L54.242 219.096Z" fill="#F5F5F5"/>
<path d="M144.379 222.013C143.061 222.013 141.773 221.623 140.677 220.89C139.582 220.158 138.728 219.118 138.223 217.9C137.719 216.683 137.587 215.343 137.844 214.051C138.101 212.759 138.736 211.572 139.668 210.64C140.599 209.708 141.787 209.074 143.079 208.816C144.371 208.559 145.711 208.691 146.928 209.196C148.146 209.7 149.186 210.554 149.918 211.649C150.65 212.745 151.041 214.033 151.041 215.351C151.041 217.118 150.339 218.812 149.09 220.062C147.84 221.311 146.146 222.013 144.379 222.013Z" fill="#EEEEEE"/>
<path d="M146.702 216.745L145.308 215.351L146.702 213.957C146.824 213.833 146.893 213.666 146.892 213.493C146.892 213.319 146.822 213.153 146.7 213.03C146.577 212.907 146.411 212.838 146.237 212.837C146.063 212.837 145.897 212.905 145.773 213.027L144.379 214.421L142.985 213.027C142.861 212.904 142.694 212.836 142.52 212.836C142.346 212.836 142.18 212.905 142.057 213.028C141.934 213.151 141.864 213.318 141.864 213.492C141.864 213.666 141.933 213.833 142.055 213.957L143.449 215.351L142.055 216.745C141.994 216.806 141.945 216.878 141.911 216.958C141.878 217.038 141.86 217.124 141.86 217.21C141.86 217.297 141.877 217.383 141.91 217.463C141.943 217.543 141.991 217.616 142.052 217.677C142.114 217.738 142.187 217.787 142.267 217.82C142.347 217.853 142.433 217.87 142.519 217.87C142.606 217.869 142.692 217.852 142.772 217.818C142.851 217.785 142.924 217.736 142.985 217.674L144.379 216.28L145.773 217.674C145.896 217.797 146.063 217.866 146.237 217.865C146.411 217.865 146.578 217.796 146.701 217.673C146.824 217.55 146.893 217.383 146.894 217.209C146.894 217.035 146.825 216.868 146.702 216.745Z" fill="#F5F5F5"/>
<path d="M316.93 141.62C315.612 141.62 314.324 141.229 313.229 140.497C312.133 139.765 311.279 138.725 310.775 137.507C310.27 136.29 310.139 134.95 310.396 133.658C310.653 132.365 311.287 131.178 312.219 130.247C313.151 129.315 314.338 128.68 315.63 128.423C316.923 128.166 318.262 128.298 319.48 128.802C320.697 129.307 321.738 130.161 322.47 131.256C323.202 132.352 323.592 133.64 323.592 134.958C323.592 136.725 322.891 138.419 321.641 139.669C320.392 140.918 318.697 141.62 316.93 141.62Z" fill="#EEEEEE"/>
<path d="M319.254 136.352L317.86 134.957L319.254 133.563C319.316 133.502 319.364 133.43 319.398 133.35C319.432 133.27 319.449 133.184 319.449 133.098C319.45 133.011 319.433 132.925 319.4 132.845C319.367 132.765 319.318 132.692 319.257 132.631C319.195 132.57 319.123 132.521 319.043 132.488C318.962 132.455 318.877 132.438 318.79 132.438C318.703 132.439 318.618 132.456 318.538 132.49C318.458 132.523 318.385 132.572 318.324 132.634L316.93 134.028L315.536 132.634C315.413 132.511 315.246 132.442 315.072 132.443C314.898 132.443 314.731 132.512 314.608 132.635C314.485 132.758 314.416 132.925 314.416 133.099C314.415 133.273 314.484 133.44 314.607 133.563L316.001 134.957L314.607 136.352C314.545 136.412 314.496 136.485 314.463 136.565C314.429 136.645 314.412 136.73 314.411 136.817C314.411 136.904 314.428 136.99 314.461 137.07C314.494 137.15 314.543 137.223 314.604 137.284C314.665 137.345 314.738 137.394 314.818 137.427C314.898 137.46 314.984 137.477 315.071 137.476C315.157 137.476 315.243 137.459 315.323 137.425C315.403 137.392 315.475 137.343 315.536 137.281L316.93 135.887L318.324 137.281C318.385 137.342 318.458 137.391 318.538 137.424C318.617 137.458 318.703 137.475 318.79 137.475C318.876 137.475 318.962 137.458 319.042 137.425C319.121 137.392 319.194 137.343 319.255 137.282C319.316 137.221 319.365 137.149 319.398 137.069C319.431 136.989 319.448 136.903 319.448 136.817C319.448 136.73 319.43 136.645 319.397 136.565C319.364 136.485 319.315 136.413 319.254 136.352Z" fill="#F5F5F5"/>
<path d="M95.3997 77.2045C111.335 77.2045 124.252 64.2867 124.252 48.3517C124.252 32.4168 111.335 19.499 95.3997 19.499C79.4647 19.499 66.5469 32.4168 66.5469 48.3517C66.5469 64.2867 79.4647 77.2045 95.3997 77.2045Z" fill="#A0616A"/>
<path d="M72.9155 73.201L84.3537 75.391C84.3537 75.391 73.7164 58.2212 74.3421 50.3623C74.9679 42.5032 83.5278 39.6874 83.5278 39.6874C83.5278 39.6874 88.2707 40.7136 93.2639 41.2893C93.8619 39.6055 94.638 37.9903 95.579 36.4712C95.7642 38.4323 96.6324 40.266 98.0319 41.6522C99.8618 41.8094 101.705 41.5966 103.451 41.0265C105.428 40.1255 105.39 38.5612 104.74 37.097C114.263 37.56 123.286 42.1903 123.286 42.1903C123.574 38.3483 123.427 34.4861 122.848 30.6771C122.573 30.602 122.297 30.5144 122.022 30.4268C120.316 29.8872 118.672 29.17 117.116 28.2869C118.848 28.0571 120.465 27.2963 121.747 26.1094C120.695 23.0308 119.019 20.3652 116.378 19.0638C113.83 17.8178 111.045 17.1339 108.21 17.0584C105.375 16.9828 102.557 17.5173 99.9466 18.6258C99.9466 18.6258 106.066 14.1581 103.813 12.331C103.663 12.4812 103.513 12.6188 103.35 12.7565C103.138 12.9317 102.9 13.1194 102.675 13.2946C101.286 14.4209 99.2082 12.8316 98.9329 11.1296C98.9033 10.9147 98.8615 10.7016 98.8077 10.4914C98.7702 10.3162 98.7201 10.141 98.6701 9.97829C98.6276 9.83389 98.5774 9.69187 98.5199 9.5528C94.3526 8.55159 81.7506 12.6188 76.9075 21.5791C76.9076 21.5792 43.0562 37.8479 72.9155 73.201Z" fill="#3F3D56"/>
<path d="M219.756 23.5297C226.254 23.5297 231.521 18.2624 231.521 11.7649C231.521 5.26731 226.254 0 219.756 0C213.259 0 207.991 5.26731 207.991 11.7649C207.991 18.2624 213.259 23.5297 219.756 23.5297Z" fill="#A0616A"/>
<path opacity="0.5" d="M312.482 8.62689H221.148C206.667 8.62689 194.928 20.366 194.928 34.8469V67.8669C194.928 82.3479 206.667 94.087 221.148 94.087H312.482C326.963 94.087 338.702 82.3479 338.702 67.8669V34.8469C338.702 20.366 326.963 8.62689 312.482 8.62689Z" fill="#F5F5F5"/>
<path d="M312.483 95.0677H221.148C213.937 95.0595 207.023 92.1911 201.924 87.0918C196.824 81.9925 193.956 75.0787 193.948 67.8672V34.847C193.956 27.6355 196.824 20.7217 201.924 15.6224C207.023 10.523 213.937 7.65466 221.148 7.64648H312.483C319.695 7.65466 326.608 10.523 331.708 15.6224C336.807 20.7217 339.675 27.6355 339.684 34.847V67.8672C339.675 75.0787 336.807 81.9925 331.708 87.0918C326.608 92.1911 319.695 95.0595 312.483 95.0677ZM221.148 9.60729C214.457 9.61488 208.041 12.2765 203.31 17.0082C198.578 21.7399 195.916 28.1553 195.909 34.847V67.8672C195.916 74.5589 198.578 80.9743 203.31 85.706C208.041 90.4377 214.457 93.0993 221.148 93.1069H312.483C319.175 93.0993 325.59 90.4377 330.322 85.706C335.054 80.9743 337.715 74.5589 337.723 67.8672V34.847C337.715 28.1553 335.054 21.7399 330.322 17.0082C325.59 12.2765 319.175 9.61488 312.483 9.60729H221.148Z" fill="#F5F5F5"/>
<path d="M294.104 53.8102C294.164 59.2976 295.91 70.7223 294.658 76.0972L294.456 75.6474C293.415 76.4724 292.31 77.212 291.15 77.8589C290.314 75.8242 289.063 73.986 287.477 72.4614C287.686 74.9839 287.387 77.5226 286.6 79.928C281.914 81.6147 273.691 76.2996 268.593 76.1872C260.392 75.9998 252.401 73.9607 244.567 71.8017C241.786 71.0371 238.727 70.0401 237.468 67.7311C236.208 65.4222 238.462 62.93 238.315 60.3246C237.264 41.7665 246.104 38.6558 254.515 33.697C256.366 32.6058 257.273 30.2562 259.365 29.3416C262.266 28.0746 265.722 28.6819 268.878 29.3191C268.094 29.0609 267.39 28.6052 266.833 27.996C266.277 27.3868 265.886 26.6446 265.7 25.8407C265.568 25.0528 265.656 24.2439 265.955 23.5031C266.254 22.7623 266.752 22.1185 267.394 21.6427C268.351 21.0165 269.433 20.608 270.566 20.4461C271.698 20.2842 272.852 20.3728 273.946 20.7056C276.089 21.376 278.117 22.3722 279.958 23.6593C281.208 24.3448 282.325 25.2487 283.256 26.328C283.695 26.8388 283.968 27.4714 284.037 28.1412C284.107 28.811 283.97 29.4861 283.646 30.0763C283.246 30.5821 282.737 30.9912 282.157 31.2728C281.577 31.5545 280.94 31.7015 280.295 31.703C279.301 31.7319 278.308 31.6286 277.342 31.3957C281.772 32.4886 285.765 34.9046 288.789 38.3224C292.544 42.6928 294.036 48.3227 294.104 53.8102Z" fill="#2F2E41"/>
<path d="M264.684 71.6773C274.722 71.6773 282.859 63.5402 282.859 53.5027C282.859 43.4652 274.722 35.3281 264.684 35.3281C254.647 35.3281 246.51 43.4652 246.51 53.5027C246.51 63.5402 254.647 71.6773 264.684 71.6773Z" fill="#FFB6B6"/>
<path d="M284.515 50.7593C282.379 53.3456 279.2 53.2106 276.374 52.7983C275.482 52.6709 274.59 52.5284 273.698 52.3635C273.54 51.8613 273.36 51.359 273.158 50.8717C272.322 48.837 271.071 46.9988 269.485 45.4742C269.652 47.4675 269.497 49.4747 269.027 51.419C267.371 51.0366 265.721 50.6093 264.08 50.1371C262.627 49.9009 261.321 49.1157 260.431 47.9438C259.54 46.7718 259.135 45.3027 259.297 43.84C256.935 45.6392 254.364 47.1984 251.665 47.2284C250.144 47.1889 248.676 46.6632 247.475 45.7283C246.274 44.7934 245.405 43.4985 244.994 42.0333C244.367 39.6605 244.257 37.1808 244.671 34.7618C245.031 31.8756 245.841 28.7046 247.79 27.5426C249.356 26.598 251.163 27.2727 252.775 28.0374C256.326 29.7415 259.692 31.8064 262.82 34.1995L262.858 34.9866C263.667 31.111 266.344 28.1198 269.26 27.82C271.224 27.6251 273.143 28.5321 274.995 29.4467C277.415 30.5144 279.665 31.9313 281.674 33.6522C283.943 35.7165 285.52 38.4317 286.187 41.4261C286.884 44.6721 286.359 48.5253 284.515 50.7593Z" fill="#2F2E41"/>
<path d="M266.525 25.5363C266.712 25.552 266.254 25.447 266.403 25.5094C266.33 25.4761 266.26 25.4368 266.193 25.3922C266.182 25.3849 266.034 25.2655 266.131 25.3486C265.908 25.1755 265.741 24.9418 265.648 24.6756C265.442 24.0288 265.346 23.3519 265.364 22.6732C265.401 21.7812 265.249 20.8914 264.918 20.0624C264.82 19.8379 264.67 19.6397 264.481 19.4839C264.291 19.3281 264.068 19.2191 263.829 19.1658C263.59 19.1124 263.342 19.1163 263.104 19.1769C262.867 19.2376 262.647 19.3534 262.463 19.5149C261.945 20.2129 261.694 21.0738 261.757 21.9409C261.71 22.78 261.799 23.6212 262.021 24.432C262.401 25.7651 263.161 26.9589 264.208 27.8677C265.417 28.9266 266.935 29.5676 268.537 29.6955C268.758 29.6906 268.972 29.6217 269.153 29.4973C269.335 29.3729 269.477 29.1983 269.561 28.9949C269.645 28.7914 269.668 28.5679 269.628 28.3514C269.587 28.135 269.485 27.935 269.333 27.7759L267.32 25.8656C267.109 25.6569 266.824 25.5403 266.527 25.5413C266.23 25.5422 265.945 25.6606 265.735 25.8706C265.525 26.0806 265.407 26.3652 265.406 26.6622C265.405 26.9592 265.522 27.2445 265.73 27.4558L267.742 29.366L268.537 27.4464C268.205 27.4165 267.878 27.3496 267.561 27.2468C267.217 27.1512 266.888 27.0072 266.585 26.8191C266.287 26.6562 266.009 26.4614 265.754 26.2382C265.59 26.0947 265.435 25.9431 265.287 25.7838C265.233 25.726 265.18 25.6671 265.129 25.6072C265.133 25.6116 264.917 25.3411 265.01 25.4648C264.777 25.1466 264.575 24.8075 264.405 24.4518C264.345 24.3258 264.296 24.1951 264.257 24.061C264.186 23.8405 264.128 23.6161 264.083 23.3888C263.997 22.9112 263.972 22.4248 264.006 21.9408C264.016 21.7355 264.036 21.5309 264.068 21.3278C264.096 21.2207 264.117 21.1118 264.13 21.0018C264.134 20.7288 264.093 21.1476 263.951 21.2112L263.383 21.3647C263.291 21.3572 263.201 21.329 263.121 21.2821C263.041 21.2352 262.973 21.171 262.921 21.094C262.897 21.0002 262.904 21.0168 262.941 21.144C262.983 21.2932 263.016 21.445 263.04 21.5985C263.083 21.9552 263.108 22.3138 263.115 22.673C263.122 23.4341 263.211 24.1922 263.379 24.9345C263.536 25.6805 263.925 26.3576 264.49 26.8695C265.055 27.3814 265.768 27.7018 266.525 27.7852C266.823 27.7828 267.108 27.6636 267.318 27.4532C267.528 27.2428 267.648 26.9581 267.65 26.6606C267.644 26.3643 267.524 26.0817 267.314 25.8721C267.104 25.6625 266.822 25.5422 266.525 25.5363Z" fill="#2F2E41"/>
<path d="M221.831 30.1733C225.558 30.1733 228.579 27.152 228.579 23.4251C228.579 19.6982 225.558 16.6769 221.831 16.6769C218.104 16.6769 215.083 19.6982 215.083 23.4251C215.083 27.152 218.104 30.1733 221.831 30.1733Z" fill="#0026FF"/>
<path d="M220.911 26.9369C220.794 26.9369 220.679 26.9097 220.575 26.8576C220.471 26.8055 220.38 26.7298 220.31 26.6366L218.469 24.1818C218.41 24.103 218.366 24.0132 218.341 23.9174C218.316 23.8216 218.31 23.7219 218.323 23.6238C218.337 23.5258 218.37 23.4314 218.42 23.3461C218.471 23.2609 218.537 23.1864 218.617 23.127C218.696 23.0676 218.786 23.0244 218.882 23C218.978 22.9756 219.078 22.9705 219.176 22.9848C219.274 22.9991 219.368 23.0327 219.453 23.0835C219.538 23.1344 219.612 23.2015 219.67 23.2811L220.875 24.887L223.968 20.2468C224.079 20.0812 224.25 19.9662 224.446 19.9271C224.641 19.8881 224.844 19.9282 225.009 20.0386C225.175 20.149 225.29 20.3207 225.329 20.516C225.368 20.7112 225.328 20.9139 225.217 21.0796L221.536 26.6026C221.469 26.7025 221.379 26.7849 221.274 26.8431C221.169 26.9012 221.052 26.9333 220.932 26.9366L220.911 26.9369Z" fill="#F5F5F5"/>
<path d="M313.989 30.8343C312.671 30.8343 311.383 30.4436 310.287 29.7115C309.192 28.9794 308.338 27.9389 307.834 26.7215C307.329 25.5041 307.197 24.1645 307.454 22.8721C307.712 21.5797 308.346 20.3925 309.278 19.4608C310.21 18.529 311.397 17.8945 312.689 17.6374C313.981 17.3804 315.321 17.5123 316.539 18.0165C317.756 18.5208 318.796 19.3748 319.528 20.4704C320.261 21.566 320.651 22.8542 320.651 24.1719C320.651 25.9389 319.949 27.6335 318.7 28.8829C317.45 30.1324 315.756 30.8343 313.989 30.8343Z" fill="#EEEEEE"/>
<path d="M316.313 25.5658L314.918 24.1716L316.313 22.7775C316.374 22.7166 316.423 22.6441 316.457 22.5642C316.49 22.4843 316.508 22.3986 316.508 22.312C316.508 22.2253 316.491 22.1395 316.458 22.0594C316.425 21.9793 316.377 21.9065 316.315 21.8452C316.254 21.7839 316.181 21.7354 316.101 21.7024C316.021 21.6693 315.935 21.6524 315.849 21.6527C315.762 21.653 315.676 21.6704 315.596 21.7039C315.517 21.7375 315.444 21.7864 315.383 21.8481L313.989 23.2422L312.595 21.8481C312.472 21.7254 312.305 21.6567 312.131 21.6569C311.957 21.6572 311.79 21.7264 311.667 21.8494C311.544 21.9725 311.475 22.1392 311.474 22.3132C311.474 22.4872 311.543 22.6541 311.665 22.7775L313.06 24.1716L311.665 25.5658C311.604 25.6267 311.555 25.6992 311.521 25.7791C311.488 25.859 311.47 25.9447 311.47 26.0314C311.47 26.118 311.487 26.2038 311.52 26.2839C311.553 26.364 311.601 26.4368 311.663 26.4981C311.724 26.5594 311.797 26.6079 311.877 26.6409C311.957 26.674 312.043 26.6908 312.129 26.6906C312.216 26.6903 312.302 26.6729 312.382 26.6394C312.462 26.6059 312.534 26.5569 312.595 26.4952L313.989 25.1011L315.383 26.4952C315.444 26.5565 315.517 26.6052 315.596 26.6385C315.676 26.6717 315.762 26.6889 315.848 26.689C315.935 26.6892 316.02 26.6722 316.1 26.6392C316.18 26.6062 316.253 26.5577 316.314 26.4965C316.375 26.4354 316.424 26.3628 316.457 26.2829C316.49 26.203 316.507 26.1174 316.506 26.0309C316.506 25.9444 316.489 25.8589 316.456 25.779C316.423 25.6992 316.374 25.6268 316.313 25.5658Z" fill="#F5F5F5"/>
</svg>
